# xmcd
#
# Track frame offsets:
#	150
#	15725
#	31547
#	49464
#	62900
#	79475
#	91999
#	104640
#	119634
#	135780
#	151109
#
# Disc length: 2245 seconds
#
# Revision: 0
# Processed by: cddbd v1.5.2PL0 Copyright (c) Steve Scherf et al.
# Submitted via: EasyCDDAExtractor 10.1.0.1
#
DISCID=8b08c30b
DTITLE=Michael Johnson - Farväl till ensamheten
DYEAR=2007
DGENRE=Pop
TTITLE0=Farväl till ensamheten
TTITLE1=Hans hjärta för dig
TTITLE2=Storm
TTITLE3=Ordning bland minnen
TTITLE4=Så tränger ljuset in
TTITLE5=Säg mig allt om Jesus
TTITLE6=Jag bär min synd till Jesus
TTITLE7=Du har frälst min själ
TTITLE8=Landet vid ett hjärtas sista slag
TTITLE9=Så glad att vi tog oss tid (att leva)
TTITLE10=Tänk på mig
EXTD=
EXTT0=
EXTT1=
EXTT2=
EXTT3=
EXTT4=
EXTT5=
EXTT6=
EXTT7=
EXTT8=
EXTT9=
EXTT10=
PLAYORDER=
